<?xml version="1.0" standalone="no"?>
<!DOCTYPE svg PUBLIC "-//W3C//DTD SVG 1.1//EN" "http://www.w3.org/Graphics/SVG/1.1/DTD/svg11.dtd" >
<!--
2013-9-30: Created.
-->
<svg>
<metadata>
Created by iconfont
</metadata>
<defs>

<font id="iconfont" horiz-adv-x="1024" >
  <font-face
    font-family="iconfont"
    font-weight="500"
    font-stretch="normal"
    units-per-em="1024"
    ascent="896"
    descent="-128"
  />
    <missing-glyph />
    
    <glyph glyph-name="laiyuan" unicode="&#58917;" d="M840.930628 323.655262 952.054908 323.655262C982.427774 323.655262 990.478573 342.088623 970.013741 364.827326L545.709547 836.27643C525.237813 859.022802 492.064666 859.015133 471.599831 836.27643L47.295639 364.827326C26.823904 342.080954 34.87125 323.655262 65.254473 323.655262L176.378751 323.655262 176.378751-8.785146C176.378751-38.911155 201.168145-64 231.747413-64L453.275366-64 453.275366 46.758645 564.034014 46.758645 564.034014-64 785.561967-64C816.357901-64 840.930628-39.279467 840.930628-8.785146L840.930628 323.655262 840.930628 323.655262Z"  horiz-adv-x="1024" />

    
    <glyph glyph-name="sousuo" unicode="&#59548;" d="M942.068478 62.466959L716.945207 287.638325c87.942935 137.098471 72.058153 322.015018-47.706535 441.823708-138.137127 138.149407-362.931916 138.149407-501.097696 0-138.166803-138.14122-138.166803-362.904287 0-501.072113C287.93227 108.576113 472.876446 92.687238 609.996406 180.675198l225.116108-225.166249c26.273387-26.270317 68.804039-26.270317 95.053889 0l11.903098 11.902074c26.248827 26.27441 26.248827 68.804039-0.001023 95.055936zM245.404688 305.568696c-95.547123 95.573729-95.547123 251.075339 0.005116 346.609159l0.041956-0.041955c95.498004 95.622848 251.031337 95.526657 346.565157-0.00307 95.534843-95.529727 95.534843-251.031337 0-346.564134-95.545076-95.53382-251.077386-95.53382-346.612229 0zM942.068478 62.466959z"  horiz-adv-x="1024" />

    
    <glyph glyph-name="dianxinzhapian" unicode="&#58898;" d="M479.947492 40.389128c90.715071 0 181.437306-0.240477 272.151353 0.223081 16.039301 0.080841 41.300638-4.477988 40.352033 18.824741-2.353604 57.662281 13.352099 117.78766-24.24724 171.631986-39.507806 56.577576-75.270311 115.696022-113.688295 173.038008-10.716063 15.987113-15.379269 32.089859-16.168238 51.065026-0.668219 16.117073 10.023284 42.582841-18.561751 43.043329-24.089651 0.387833-57.190537 8.201799-63.832817-31.176047-3.609201-21.383006-18.932188-25.598005-37.677111-25.317619-21.256116 0.321318-42.551118 0.683569-63.775512-0.188288-25.679869-1.048889-43.778062 3.51915-45.222971 35.259038-1.665942 36.609803-32.339546 22.422685-52.258201 24.644283-23.263843 2.597151-29.740348-12.671601-27.64564-32.076556 3.412726-31.580253-9.895371-56.882522-26.609031-82.157161-29.526477-44.64378-54.096059-92.942809-87.083357-134.801149-40.318264-51.14382-50.750871-106.511849-48.12916-169.113629 1.39886-33.417087 11.450796-44.086078 44.508703-43.484374C301.328371 41.45132 390.6497 40.372755 479.947492 40.389128zM709.112822 730.413708c-186.772824-10.06217-353.564571-49.089022-510.889713-124.685767-39.371706-18.922978-77.537957-40.788985-114.457822-64.110133-25.02393-15.812127-27.258831-91.25333-5.387707-101.216239 27.300786-12.423961 123.468033 37.839817 124.56297 68.924789 1.530866 43.605124 27.666106 66.131163 60.902068 84.001159 84.249823 45.306882 175.202301 69.76697 269.722024 82.850963 40.085974 5.550413 83.165118 10.431583 113.90012-17.059538 50.744731-45.37749 101.393271-26.15059 154.074098-11.849886 24.025183 6.515391 19.020192 18.158568 7.897877 33.492812C781.357216 719.477634 746.457358 740.947622 709.112822 730.413708zM127.54642 380.069481c27.767414 6.952342 64.895009 11.493775 88.658226 43.720757 7.689123 10.420327 11.612479 24.702612 2.082428 34.911114-8.654101 9.261944-17.686824-2.175549-25.559119-6.589069-25.745361-14.430664-51.66673-28.264741-80.546477-35.671431-11.485589-2.933819-30.850635-0.220011-29.246091-16.208147C84.687286 382.700401 103.225501 379.804445 127.54642 380.069481zM739.509109 563.298596c36.195364 0.881067 64.332191 3.888564 86.778412 24.224728 9.104355 8.245801 12.991895 19.788695 6.940063 30.591739-6.748704 12.056594-17.515932 3.990894-26.369577 1.294482-28.332279-8.627495-55.948243-19.524682-86.60752-18.554588-11.07422 0.354064-29.222555 6.076392-29.512151-13.131065-0.211824-13.781888 13.143345-20.668739 26.680663-22.626323C727.182362 563.685405 737.126852 563.479721 739.509109 563.298596zM768.202615 231.068935c-39.507806 56.577576-75.270311 115.696022-113.688295 173.038008-10.716063 15.987113-15.379269 32.089859-16.168238 51.065026-0.668219 16.117073 10.023284 42.582841-18.561751 43.043329-24.089651 0.387833-57.190537 8.201799-63.832817-31.176047-3.609201-21.383006-18.932188-25.598005-37.677111-25.317619-21.256116 0.321318-42.551118 0.683569-63.775512-0.188288-25.679869-1.048889-43.778062 3.51915-45.222971 35.259038-1.665942 36.609803-32.339546 22.422685-52.258201 24.644283-23.263843 2.597151-29.740348-12.671601-27.64564-32.076556 3.412726-31.580253-9.895371-56.882522-26.609031-82.157161-29.526477-44.64378-54.096059-92.942809-87.083357-134.801149-40.318264-51.14382-50.750871-106.511849-48.12916-169.113629 1.39886-33.417087 11.450796-44.086078 44.508703-43.484374 89.26914 1.647523 178.590468 0.569982 267.88826 0.576121 90.715071 0.00921 181.437306-0.232291 272.151353 0.232291 16.039301 0.080841 41.300638-4.477988 40.352033 18.824741C790.097274 117.099231 805.801954 177.22461 768.202615 231.068935zM541.809421 331.786825c0.670266 22.688745 18.47477 33.056883 40.186258 35.834136 21.702278-3.76986 39.197744-13.674441 39.372729-37.08871 0.171915-23.191188-16.530488-36.732599-38.266535-37.129642C559.413358 292.964634 541.074687 306.763918 541.809421 331.786825zM482.411613 366.680543c22.239514 0.998747 35.914978-13.127995 40.697911-34.350342-2.264577-23.610744-15.844873-37.34556-37.758975-38.739303-21.87624-1.393743-39.039131 9.909697-41.349757 33.007765C441.382151 352.81065 459.032136 365.617327 482.411613 366.680543zM381.889175 366.721475c21.812795 0.726547 36.252669-12.881378 40.415478-35.602869-2.15099-22.722514-15.962553-36.192294-37.798884-37.461193-21.843494-1.2689-39.162952 10.29446-41.34157 33.156144C340.695984 352.778928 358.612029 365.938646 381.889175 366.721475zM382.109186 281.673473c22.282492 0.734734 35.263132-14.219863 40.305985-34.574447-2.518357-24.053835-16.532535-37.687344-38.171368-38.700417-21.529339-1.022283-39.076994 10.755971-41.055045 33.590026C340.951811 267.833257 358.719476 280.899854 382.109186 281.673473zM382.591163 129.765715c-23.830755 0.397043-40.934295 14.185071-39.057551 38.998199 1.658779 21.896706 17.766642 34.142611 40.532135 33.359782 23.156396-0.800225 33.840736-15.769149 38.536688-34.555004C417.91774 143.405363 404.829653 129.403464 382.591163 129.765715zM481.40468 281.590586c24.022113 0.585331 41.306778-13.535271 40.648792-38.398542-0.606821-22.883173-18.500353-32.688493-39.97341-36.112476-21.11183 4.362354-38.092573 14.036691-38.406728 37.629016C443.352015 268.475893 459.741287 281.070746 481.40468 281.590586zM485.803873 128.769015c-22.910802-1.592264-39.557948 8.550747-41.713031 31.626301-2.354628 25.241894 14.121626 39.458687 37.943171 40.736796 22.370497 1.196245 35.82288-12.955056 41.237193-34.840506C520.306688 144.511557 509.115811 130.383792 485.803873 128.769015zM584.222393 130.797207c-23.921829-1.551332-41.789779 12.567223-42.23287 36.96182-0.415462 22.601764 15.350616 34.675754 38.657438 35.17922 23.464411 0.51063 36.652781-11.099802 40.614-34.20708C620.012528 145.707802 605.591073 132.182764 584.222393 130.797207zM584.033082 207.994404c-23.800056-1.427512-42.094724 13.088086-42.319851 37.505195-0.202615 22.505573 16.910135 35.786041 39.22435 36.052101 22.245653 0.261966 36.919864-12.054547 40.472783-35.154661C620.239701 222.731036 605.177658 209.257164 584.033082 207.994404zM819.424206 663.774985c-1.367137 4.427846-3.388167 8.522094-6.083555 12.255115-3.066849 4.243651-6.205329 8.442276-9.463536 12.539594-9.800203 12.326746-21.029966 23.119557-34.471093 31.454386-9.633405 5.974062-19.956517 10.134825-31.295773 11.518335-1.193175 0.145309-2.356674 0.531096-3.533476 0.804319-3.929496 0-7.858992 0-11.788487 0-0.294712-0.130983-0.576121-0.322341-0.88516-0.38374-3.445472-0.685615-6.871501-1.532913-10.348696-1.977028-4.13211-0.529049-8.3072-0.728594-12.466939-1.034563-13.138228-0.964978-26.285666-1.826602-39.415708-2.89391-11.333116-0.921999-22.664186-1.935072-33.968649-3.1569-13.174044-1.425466-26.322505-3.089361-39.474037-4.708232-21.598924-2.657526-43.049468-6.28924-64.48364-10.017144-27.964912-4.863774-55.701626-10.81737-83.265402-17.58654-65.660442-16.123212-129.573077-37.46324-191.738929-64.061015-51.548026-22.054295-101.162004-47.791469-148.674111-77.56968-3.119037-1.954515-6.247284-3.90596-9.461489-5.697769-7.208169-4.018523-12.267395-9.925047-15.71696-17.3389-3.938706-8.465812-6.154163-17.399275-7.312546-26.622334-0.254803-2.028193-0.336668-4.078899-0.6191-6.101975-0.143263-1.02126-0.557702-2.004657-0.850367-3.00545 0-5.239328 0-10.478655 0-15.717983 0.298805-0.904603 0.724501-1.789763 0.873903-2.717901 0.428765-2.663666 0.650823-5.362124 1.12666-8.015557 1.208525-6.735401 3.192715-13.183254 7.199982-18.868743 2.373047-3.366677 5.504364-5.608741 9.520841-6.435573 2.390443-0.49221 4.848425-0.870834 7.280824-0.902556 5.919826-0.076748 11.752672 0.846274 17.452487 2.388397 29.277814 7.925507 55.488779 21.75242 78.710666 41.2331 5.28947 4.438079 9.894348 9.540284 13.618159 15.391549 2.177596 3.422959 3.76065 7.081279 4.173043 11.160177 0.213871 2.116197 0.324388 4.242627 0.48914 6.362918 0.672312 8.702196 2.49789 17.139356 5.767354 25.251104 5.158487 12.802584 13.380752 23.360034 23.685445 32.391734 9.662057 8.468882 20.538779 15.141862 31.816636 21.167089 33.403784 17.844413 68.109214 32.682353 104.008842 44.73383 38.517245 12.930497 77.800947 22.845311 117.795846 29.975708 26.818809 4.78191 53.673433 9.321296 80.863702 11.42112 13.500479 1.042749 26.986631 0.873903 40.346917-1.724271 14.744819-2.867304 28.052916-8.749268 39.36352-18.818601 1.833765-1.632173 3.746324-3.174296 5.643534-4.733814 19.668968-16.177448 42.219567-24.254404 67.703985-23.947412 11.325953 0.137123 22.554692 1.417279 33.543977 4.142343 14.520715 3.599991 28.970822 7.486508 43.427068 11.341303 3.786233 1.00898 7.501858 2.299369 11.216459 3.561106 2.415003 0.820692 4.681626 2.001587 6.517437 3.815909C819.386344 655.744078 820.797483 659.327696 819.424206 663.774985zM223.785298 450.722634c-1.038656 2.90926-2.542916 5.528923-4.89345 7.528464-3.924379 3.339048-7.205099 4.269233-11.894911 1.806135-2.091638-1.098008-4.146437-2.334161-6.02011-3.765767-4.307096-3.292999-8.934486-6.040576-13.682627-8.629541-13.500479-7.361665-27.033703-14.659885-41.215704-20.658506-11.231809-4.749164-22.593578-9.152451-34.579563-11.637038-3.994987-0.827855-8.081049-1.213641-12.125155-1.807159-3.406586-0.500397-6.77531-1.121544-9.870812-2.75474-3.200902-1.689479-5.284353-4.308119-5.523807-7.889691-0.453325-6.769171 1.6465-12.648065 7.29208-16.763802 2.018983-1.471514 4.363378-2.587941 6.699586-3.51301 5.068436-2.00568 10.438747-2.629897 15.842827-2.998287 1.118474-0.076748 2.226714-0.300852 3.339048-0.457418 4.420683 0 8.841366 0 13.262048 0 0.431835 0.192382 0.847298 0.453325 1.299599 0.564865 3.967358 0.979304 7.936763 1.953492 11.914354 2.888793 10.828626 2.544963 21.60404 5.251607 31.996738 9.305947 14.32731 5.588275 26.954909 13.661138 37.217646 25.234731 4.542456 5.122671 8.383948 10.683317 10.632151 17.21508C225.334583 439.791677 225.745952 445.23055 223.785298 450.722634zM846.720899 616.166687c-0.49221 3.049452-1.49505 5.89936-3.442402 8.292873-3.251044 3.998057-6.306636 5.508457-11.366885 3.940752-2.255367-0.699941-4.501524-1.540076-6.604418-2.608407-4.834098-2.452865-9.884115-4.314259-15.025205-5.995551-14.614859-4.78191-29.250184-9.496282-44.286646-12.812817-11.907191-2.626827-23.880897-4.889357-36.118616-5.151323-4.078899-0.086981-8.16803 0.277316-12.252045 0.429789-3.440355 0.127913-6.867408 0.12996-10.206456-0.912789-3.455705-1.078565-5.980201-3.27458-6.867408-6.753821-1.679245-6.573719-0.683569-12.737092 4.117784-17.810644 1.718131-1.814322 3.820002-3.339048 5.949502-4.673439 4.619204-2.89391 9.785877-4.485151 15.032368-5.830799 1.086751-0.278339 2.134617-0.700965 3.199878-1.057075 4.348028-0.804319 8.695033-1.608637 13.042037-2.412956 0.458441 0.109494 0.914836 0.291642 1.38044 0.319272 4.077875 0.240477 8.159844 0.476861 12.240789 0.672312 11.110035 0.532119 22.197558 1.233084 33.155121 3.328815 15.105023 2.888793 28.989241 8.528234 41.187051 18.040888 5.39794 4.210905 10.188037 8.980535 13.586436 14.992459C846.253248 605.136469 847.650061 610.409566 846.720899 616.166687zM581.995679 367.620961c21.702278-3.76986 39.197744-13.674441 39.372729-37.08871 0.171915-23.191188-16.530488-36.732599-38.266535-37.129642-23.688515-0.437975-42.027186 13.362332-41.293475 38.385239C542.479687 354.47557 560.283168 364.843708 581.995679 367.620961zM422.304653 331.118606c-2.15099-22.722514-15.962553-36.192294-37.798884-37.461193-21.843494-1.2689-39.162952 10.29446-41.34157 33.156144-2.469238 25.965371 15.44783 39.125089 38.724976 39.907918C403.70197 367.448022 418.141844 353.840096 422.304653 331.118606zM422.415171 247.099027c-2.518357-24.053835-16.532535-37.687344-38.171368-38.700417-21.529339-1.022283-39.076994 10.755971-41.055045 33.590026-2.236947 25.845645 15.531741 38.911218 38.920428 39.684838C404.391678 282.408207 417.372318 267.452587 422.415171 247.099027zM523.109524 332.3302c-2.264577-23.610744-15.844873-37.34556-37.758975-38.739303-21.87624-1.393743-39.039131 9.909697-41.349757 33.007765-2.619664 26.213012 15.030321 39.019689 38.410821 40.082904C504.651127 367.679289 518.326591 353.552547 523.109524 332.3302zM621.410364 246.398062c-1.170662-23.667026-16.232706-37.140898-37.376259-38.403658-23.800056-1.427512-42.094724 13.088086-42.319851 37.505195-0.202615 22.505573 16.910135 35.786041 39.22435 36.052101C603.183234 281.813666 617.857445 269.497153 621.410364 246.398062zM482.080062 207.078545c-21.11183 4.362354-38.092573 14.036691-38.406728 37.629016-0.320295 23.768333 16.068977 36.362162 37.732369 36.882002 24.022113 0.585331 41.306778-13.535271 40.648792-38.398542C521.446651 220.307847 503.553119 210.502527 482.080062 207.078545zM523.271206 166.291606c-2.964518-21.780049-14.156418-35.907815-37.468356-37.522592-22.910802-1.592264-39.557948 8.550747-41.713031 31.626301-2.354628 25.241894 14.121626 39.458687 37.943171 40.736796C504.40451 202.328357 517.856893 188.177056 523.271206 166.291606zM621.260961 168.732192c-1.249457-23.024389-15.669888-36.549427-37.038568-37.933961-23.921829-1.551332-41.789779 12.567223-42.23287 36.96182-0.415462 22.601764 15.350616 34.675754 38.657438 35.17922C604.111372 203.448878 617.299743 191.839469 621.260961 168.732192zM422.602436 167.568692c-4.683672-24.163329-17.772782-38.165228-40.011272-37.802978-23.830755 0.397043-40.934295 14.185071-39.057551 38.998199 1.658779 21.896706 17.766642 34.142611 40.532135 33.359782C407.22112 201.322447 417.90546 186.353524 422.602436 167.568692zM732.856595 497.866351L688.765401 444.038398 724.506417 430.325072ZM780.661368 489.220437L778.489912 419.894512 815.285956 430.479591ZM832.205301 510.618792L855.414909 445.194734 885.875664 468.262102ZM867.867522 560.253236L908.453892 503.767757 931.281807 534.300145Z"  horiz-adv-x="1024" />

    
    <glyph glyph-name="rushidaoqie" unicode="&#58940;" d="M898.476657 691.506583c-55.621808 15.380292-108.3538-41.538045-91.824335-89.11462 10.444886-47.074132 82.95227-63.845097 121.283274-32.948413C976.864982 601.913055 961.502086 682.596655 898.476657 691.506583L898.476657 691.506583zM921.74971 439.771211c-13.334703 44.273343-39.294958 71.934333-39.294958 71.934333s-90.150206 89.092108-125.439944 88.271416c0 0-279.021831-3.50994-309.190945-87.998193-19.452028-54.174853 12.041244-121.92591 104.471376-123.69009-9.676383-12.548804-17.381879-26.846438-12.69616-42.507116 8.873088-56.987922 23.424502-113.108081 34.020838-169.935344-35.391045-39.600927-75.700099-75.738985-107.897406-117.618814-24.438599-27.79709 7.353478-73.322959 45.734624-60.267619 38.838563 19.527752 64.546062 53.614082 94.662986 82.141812 22.158672 23.787776 48.626487 45.251623 64.445778 72.958662 0.608867 45.708018-16.884552 89.730651-20.180622 135.164423 36.000935-7.108908 57.548694-36.001959 84.878133-55.5512 19.621896-17.180288 43.807738-30.80561 59.07035-51.450812-3.602038-51.996235-11.307533-103.877859-9.229199-155.852604 2.434445-30.577413 54.101175-39.008432 71.492264-14.308891 24.133653 30.874171 13.842263 71.046103 19.520589 106.22737 0.811482 36.912701 15.007809 76.970022-2.078335 112.013143-35.189454 35.591613-104.703667 83.986833-141.464919 118.166283 31.996738 36.548404 60.84681 78.450746 60.84681 78.450746s19.620873-18.023492 61.451584-42.540885C902.989437 355.169371 939.292248 381.576811 921.74971 439.771211zM67.598073 837.356368l0-901.145951 267.967054 133.363404L335.565127 804.180781 67.598073 837.356368zM309.80851 83.20119L99.639836-21.490198l101.967346 121.004935L201.607182 780.028709l-72.53706 26.399253 180.738387-22.412452L309.80851 83.20119z"  horiz-adv-x="1024" />

    
    <glyph glyph-name="qiangjie" unicode="&#58939;" d="M718.467887 547.959236l-172.346253 61.778019c-16.807804 6.031367-33.736359-2.820232-37.841863-19.73753l-25.318642-104.322997c-4.105504-16.918321 6.158257-35.537378 22.960944-41.539069l3.421936-1.227967 26.587542 109.59814c2.939959 12.05864 14.95255 18.313088 26.891464 14.013155l122.339326-43.855834c11.914354-4.242627 19.211551-17.476023 16.299221-29.480428l-26.615171-109.569488 3.423983-1.283226c16.801664-6.003737 33.734312 2.846838 37.839817 19.791765l25.318642 104.266715C745.533312 523.335419 735.270575 541.928892 718.467887 547.959236zM547.109124 550.861332c-3.296069 0-6.588045 0.977257-9.580193 3.434216-10.898211 8.876158-8.337899 29.701462-7.703449 33.834596 2.356674 15.157211 15.563464 91.145883 45.315068 100.190887 22.432918 6.783497 29.653367 17.140379 29.733185 17.252943l26.078958 42.795689c2.661619 4.355191 7.702426 5.247514 11.304464 2.092661 3.574409-3.26537 4.332678-9.406231 1.672082-13.791098l-26.233478-43.018769c-1.013073-1.6465-10.41521-15.800871-38.624692-24.397666-14.623046-4.440126-28.311813-52.231595-33.379225-84.781942-0.862647-5.891174-0.229221-12.674671 0.862647-13.902638l0 0c0.101307-0.028653 3.521197-0.921999 13.07683 6.476505 0.532119 0.447185 13.96506 11.55722 19.843954 41.817408 0.963954 4.997827 4.868891 8.207939 9.076726 7.453762 1.593288-0.308015 40.423665-6.67298 76.260871 32.578999 3.321652 3.629667 8.416693 3.322675 11.406794-0.725524 2.988054-3.990894 2.736321-10.217712-0.584308-13.846356-32.440853-35.537378-67.343781-38.692231-82.271772-38.0762-8.31027-32.494065-24.302499-45.168736-25.040303-45.754067C564.774459 557.757392 555.954583 550.861332 547.109124 550.861332zM766.293125 682.402227c-8.135284 0-14.57495 2.960425-15.028275 3.155876l-137.855718 68.645426c-2.049682 0.977257-3.673669 2.959402-4.485151 5.441942-0.783853 2.51324-0.733711 5.27719 0.177032 7.705496l22.329565 58.988486c1.799996 4.827959 6.463202 7.062859 10.491958 4.940522l70.814836-36.626175c4.105504-2.148943 6.031367-7.900947 4.284583-12.925381-1.772366-4.969175-6.512321-7.313569-10.618848-5.163603l-63.593364 32.913621-15.510252-41.008996 129.943514-64.682161 0 0c0.024559 0 11.33107-4.996804 18.758226 1.591241 6.081509 5.360078 8.894577 18.08796 8.16189 36.681434-0.204661 5.443989 3.217275 10.022261 7.677866 10.301623 4.333702 0.223081 8.236592-3.936659 8.442276-9.324366 1.037632-26.01756-3.980661-44.078914-14.906501-53.599755C779.190877 683.967886 772.275373 682.402227 766.293125 682.402227zM722.699258 550.861332c-3.394307 0-6.537903 2.653433-7.653307 6.756891-1.422396 5.163603 0.886183 10.720156 5.117554 12.394285 21.645996 8.709359 17.385972 35.201733 10.671037 63.900356-1.801019 7.676843-3.091408 13.20372-3.091408 17.755386 0 16.246009 7.933693 34.532491 8.846482 36.597523 2.127454 4.718465 7.018857 6.476505 10.951423 3.936659 3.901867-2.596128 5.370311-8.543583 3.241834-13.287631-1.925862-4.354168-6.892991-17.699104-6.892991-27.245528 0.024559-1.841951 1.369184-7.677866 2.483564-12.424984 5.525853-23.505343 16.98279-72.52478-21.138436-87.85186C724.397946 551.029154 723.562928 550.861332 722.699258 550.861332zM566.802652 470.797855c0 0 0 0-0.024559 0-8.592702 0-13.585413 4.885264-16.246009 8.962116-8.490372 13.120832-4.460592 35.313274-3.978614 37.854143l10.338463 38.439474c0.154519 0.559748 0.331551 1.088798 0.560772 1.591241 10.061147 22.835078 21.23565 34.420951 33.175587 34.420951 8.996908 0 14.523785-6.867408 15.130605-7.649214 1.064238-1.36816 1.77339-3.127224 2.051729-4.968152 3.524267-24.343431-5.801123-58.06751-6.182816-59.489906-9.529027-45.726437-28.968775-48.685839-31.149441-48.882314C569.51339 470.909395 568.12067 470.797855 566.802652 470.797855zM572.022537 549.102269l-9.936303-36.849256c-0.98749-5.331425-1.49505-16.274662 1.116427-20.266579 0.329505-0.531096 1.01205-1.537006 3.598968-1.537006l0 0c0.60989 0 1.292436 0.028653 1.998517 0.141216 0.182149 0.055259 10.648524 2.930749 17.34197 34.95 2.330068 8.429996 7.219425 30.540573 6.155187 46.537919-0.481977 0.166799-1.038656 0.335644-1.671059 0.335644C588.701404 572.412161 581.678454 570.738032 572.022537 549.102269zM640.604518 433.948599L640.604518 433.948599c-8.588609 0-13.580297 4.885264-16.241916 8.991792-8.492418 13.06455-4.463662 35.313274-3.980661 37.796838l10.340509 38.496779c0.150426 0.558725 0.329505 1.061169 0.558725 1.563612 10.060123 22.86373 21.236674 34.364669 33.17354 34.364669 8.999978 0 14.523785-6.783497 15.106046-7.592932 1.064238-1.394766 1.799996-3.097548 2.078335-4.995781 3.523243-24.314779-5.803169-58.036811-6.182816-59.433624-9.556657-45.754067-28.997428-48.714492-31.175023-48.880267C643.343909 434.031487 641.92356 433.948599 640.604518 433.948599zM645.852032 512.253012l-9.956769-36.81958c-0.963954-5.332449-1.496074-16.275685 1.13894-20.322861 0.331551-0.503467 0.99056-1.5104 3.571339-1.5104l0 0c0.63445 0 1.295506 0.056282 2.030239 0.168846 0.174985 0.026606 10.645454 2.90312 17.33583 34.922371 2.329045 8.403391 7.223518 30.540573 6.15928 46.536896-0.481977 0.194428-1.041726 0.335644-1.674129 0.335644C662.503271 535.562904 655.509996 533.888775 645.852032 512.253012zM675.609777 427.445488L675.609777 427.445488c-7.80578 0-12.344143 4.465708-14.801101 8.233522-7.43125 11.444657-4.310166 29.869285-3.601015 33.471322l8.847505 32.94125c0.12382 0.531096 0.325411 1.060145 0.554632 1.562589 8.79634 19.989263 18.678408 30.123065 29.323862 30.123065 8.184403 0 13.229303-6.252401 13.787004-6.978948 1.066285-1.36816 1.774413-3.1262 2.053776-4.997827 3.044336-21.076014-4.991688-50.191122-5.323239-51.448766-8.135284-39.026852-24.455995-42.37818-27.625174-42.627866C678.041152 427.554982 676.799882 427.445488 675.609777 427.445488zM681.159166 495.141286l-8.441253-31.321356c-0.913812-5.02648-0.936325-13.343913 0.76134-15.997346 0.177032-0.223081 0.506537-0.725524 2.1295-0.725524l0 0c0.50449 0 0.985444 0.056282 1.544169 0.084934 0.074701 0.026606 8.365528 2.65241 13.814634 28.78151 1.927909 7.008624 5.9055 24.874527 5.297656 38.133505C693.678294 514.402979 687.674557 509.602649 681.159166 495.141286zM605.579817 442.407248L605.579817 442.407248c-6.768147 0-12.44545 3.183506-16.424064 9.128915-9.630335 14.488992-5.296633 41.120536-4.762467 44.135196l11.073196 45.642526c0.12689 0.502443 0.279363 1.004887 0.454348 1.480724 10.67206 26.799366 22.534226 40.36636 35.281551 40.36636 9.6815 0 15.484669-7.956206 16.121166-8.905834 0.938372-1.340531 1.544169-2.987031 1.771343-4.745071 3.701299-28.28009-6.15928-67.837015-6.562463-69.483514-9.886161-52.482305-29.196972-56.95006-32.976042-57.257052C608.544335 442.547441 607.023702 442.407248 605.579817 442.407248zM610.750583 534.978597l-10.722202-44.135196c-1.240247-7.42511-1.74883-21.830191 1.698688-26.966165 0.633427-0.949628 1.520633-1.842974 3.853771-1.842974l0 0c0.659009 0 1.366114 0.084934 2.128477 0.224104 0.204661 0.054235 11.833513 3.629667 19.23611 42.823318 0.228197 0.978281 8.441253 34.0587 6.591115 57.758472-0.633427 0.36225-1.420349 0.670266-2.332115 0.670266C629.101533 563.509397 621.422643 561.443341 610.750583 534.978597zM302.072315 94.26313L637.489574-27.171594 742.492046 362.680439 414.553109 481.462752ZM825.295937 332.696544l-37.839817 13.736862-104.980983-389.906268 46.484707-16.835434c22.75833-8.233522 46.381353 6.147 52.742225 32.135908l73.2984 298.951743C861.384877 296.739611 848.081896 324.461999 825.295937 332.696544zM369.566522 497.737414l-41.742706 15.130605c-22.759353 8.235568-46.382377-6.139837-52.743248-32.103162l-73.2984-298.982442c-6.360871-25.960255 6.92062-53.711296 29.679973-61.944817l25.599028-9.296737L369.566522 497.737414zM482.047316 636.899894c-6.692423 0-12.114922 6.588045-12.114922 14.768355l0 68.506257c0 8.123005 5.423523 14.71105 12.114922 14.71105 6.691399 0 12.114922-6.587022 12.114922-14.71105l0-68.506257C494.162238 643.487939 488.738715 636.899894 482.047316 636.899894zM418.785503 577.186907c-1.216711 0-2.431376 0.224104-3.647063 0.668219-6.388501 2.51324-9.909697 10.776438-7.884574 18.508539l15.638165 59.740616c2.028193 7.733125 8.821923 12.004405 15.233959 9.547447 6.361895-2.483564 9.884115-10.746762 7.856945-18.507516l-15.638165-59.685357C428.696224 581.177801 423.930687 577.186907 418.785503 577.186907zM946.497347 212.434529L923.025773 212.434529c-6.664793 0-12.088316 6.589069-12.088316 14.713097 0 8.120958 5.423523 14.713097 12.088316 14.713097l23.472598 0c6.689353 0 12.112875-6.590092 12.112875-14.713097C958.610222 219.023598 953.187723 212.434529 946.497347 212.434529zM923.025773 166.287513l-66.430992 0c-6.686283 0-12.113899 6.561439-12.113899 14.685467 0 8.148587 5.427616 14.738679 12.113899 14.738679l66.430992 0c6.692423 0 12.113899-6.590092 12.113899-14.738679C935.140695 172.848952 929.718195 166.287513 923.025773 166.287513zM74.804195 456.030523c-2.255367 0-4.53734 0.782829-6.564509 2.373047-5.601578 4.439102-7.223518 13.539364-3.597945 20.380166l64.50206 121.127731c3.648087 6.812149 11.151991 8.765641 16.751522 4.356214 5.628184-4.411473 7.224542-13.512758 3.601015-20.352537L84.991208 462.785368C82.684676 458.4312 78.783833 456.030523 74.804195 456.030523zM139.306254 465.857333c-2.661619 0-5.347798 1.061169-7.577582 3.294023-5.220908 5.108345-6.031367 14.3488-1.824555 20.685111l42.983977 64.794725c4.207835 6.308683 11.812023 7.314593 17.032932 2.205225 5.195326-5.079692 6.005784-14.375405 1.824555-20.685111l-42.985-64.793702C146.352741 467.754542 142.829498 465.857333 139.306254 465.857333z"  horiz-adv-x="1024" />

    
    <glyph glyph-name="jingche" unicode="&#58900;" d="M627.2 780.8l-16 9.6-25.6-41.6 16-9.6 25.6 41.6z m-22.4-112l44.8 9.6-3.2 16-44.8-9.6 3.2-16z m-80 156.8h-16v-44.8h16V825.6z m409.6-508.8H896l-44.8 246.4c0 44.8-38.4 83.2-86.4 83.2H582.4V694.4c0 38.4-28.8 64-60.8 64-38.4 0-60.8-28.8-60.8-64V640h-192-3.2c-44.8 0-86.4-38.4-86.4-83.2l-44.8-246.4H89.6C41.6 316.8 0 272 0 220.8v-204.8h73.6v-28.8c0-38.4 28.8-60.8 60.8-60.8s60.8 28.8 60.8 60.8v28.8h627.2v-28.8c0-38.4 28.8-60.8 60.8-60.8 38.4 0 60.8 28.8 60.8 60.8v28.8H1024v204.8c0 51.2-41.6 96-89.6 96z m-800-208c-38.4 0-60.8 28.8-60.8 60.8 0 38.4 28.8 60.8 60.8 60.8s60.8-28.8 60.8-60.8c6.4-32-22.4-60.8-60.8-60.8z m118.4 208l44.8 201.6h425.6l44.8-201.6H252.8z m636.8-208c-38.4 0-60.8 28.8-60.8 60.8 0 38.4 28.8 60.8 60.8 60.8 38.4 0 60.8-28.8 60.8-60.8s-28.8-60.8-60.8-60.8z m-460.8 576L384 694.4l-3.2-16 44.8-9.6 3.2 16z m12.8 64L416 787.2l-12.8-9.6 25.6-38.4 12.8 9.6z"  horiz-adv-x="1024" />

    
    <glyph glyph-name="qiakou" unicode="&#59027;" d="M140.711942 718.800494l-128.248368-327.123655 571.156818-223.802434 211.33886 294.790615-654.24731 256.135474z m726.138649-371.739637l-65.027342-166.000353 108.01764-114.15911 114.159111 290.997354-157.149409-10.837891z m-78.574705 51.841242l-133.847945-187.31487 114.159111-44.796613 81.284177 207.545598-61.595343 24.565885z m-695.07003-126.622685l75.323338-29.984829-29.442935-65.027342h-137.641207v-58.343976h175.754454v2.167578l45.338508 99.889222 82.90986-32.694302 25.649674 65.027341-212.783912 83.99365-25.10778-65.027342z"  horiz-adv-x="1024" />

    
    <glyph glyph-name="jingcha" unicode="&#58897;" d="M105.9-63.3c5.5 79.7 16.6 187.3 41.1 286.1 5.1 25.5 23.2 46.9 23.8 47.7 2.3 15.1 187.9 15.2 187.9 15.2l30.7 2.9c-4.4-27.2-7.7-68.5 4-104 15.2-46.6 39.4-92.8 72.3-120.3l7 123.7H536l10.9-116c23 32.9 49.8 84.7 52.6 150.7 2.2 51.6 15.1 75.2 26.2 86.1 76.9-3.1 173.3-17.2 212-38.4 36.9-20.2 48.5-146.4 81.9-333.8H105.9v0.1zM528.1 205.8h-39.7l-31.8 26.6 47.7 62 47.6-53.2-23.8-35.4zM738.8 732.6c-19 38-129.4 95-249.8 98.9-120.4 4-247.9-65.9-246.9-117 1-51 64.2-73 64.2-73-3.3-9.9-1.6-48.3-1.6-48.3s2.9-5.3 8.4-12.7C294.5 335.2 509 331 509 331c185.9 19.3 171.1 221.2 169.3 250.4-0.7 10.7-2 19.2-3.6 26.8 2.3 16.5-4.1 33.5-4.1 33.5 27.1 10.9 87.3 52.9 68.2 90.9z m-280.2 19.1c-0.2 1.6-0.5 3.2-0.5 4.9 0 20.7 18.2 37.5 40.7 37.5 22.5 0 40.7-16.8 40.7-37.5 0-2.6-0.3-5.2-0.9-7.7 12.1 1.1 25.2 2.1 37.1 2.3 0 0-33.9-15.8-53.2-25.1-2.9-1.9-6-3.4-9.4-4.6-0.2-0.1-0.5-0.3-0.8-0.4 0 0-1.1-0.3-2.9-0.6-3.4-0.9-7-1.5-10.7-1.5-0.7 0-1.4 0.2-2.1 0.2-9 0-20.4 1.8-29.6 9.5 0 0-13.9 9.5-45.3 22.6 0.1 0 16.8 2.1 36.9 0.4z m181.3-107.8H332v36.4h307.9v-36.4z"  horiz-adv-x="1024" />

    
    <glyph glyph-name="gerenzhongxin" unicode="&#58882;" d="M660.312 363.328c64.35 47.371 106.356 123.384 106.356 209.239 0 143.349-116.633 259.978-259.989 259.978S246.69 715.915 246.69 572.565c0-86.9 43.015-163.77 108.707-210.989C201.526 300.96 92.182 151.195 92.182-23.937c0-21.524 17.454-38.978 38.98-38.978 21.526 0 38.978 17.454 38.978 38.978 0 185.562 150.97 336.544 336.54 336.544 1.607 0 3.149 0.21 4.747 0.247 0.81-0.057 1.571-0.247 2.39-0.247 185.57 0 336.537-150.982 336.537-336.544 0-21.524 17.454-38.978 38.98-38.978 21.526 0 38.98 17.454 38.98 38.978-0.001 176.922-111.64 327.903-268.002 387.265zM324.648 572.566c0 100.375 81.66 182.021 182.03 182.021s182.03-81.647 182.03-182.021c0-100.357-81.66-182.004-182.03-182.004s-182.03 81.648-182.03 182.004z"  horiz-adv-x="1024" />

    
    <glyph glyph-name="diandongche" unicode="&#58883;" d="M833.313143 52.816c82.178286 0 148.796571 62.882286 148.796571 140.473143H684.517714c-0.005714-77.592 66.612571-140.473143 148.795429-140.473143z m0 0M1022.638857 252.619429l-33.235428 115.843428c-19.974857 69.571429-97.912 125.859429-174.133715 125.859429H562.700571c-11.899429 0-21.272-8.970286-21.272-20.037715v-180.642285h-70.122285l-47.145143 131.513143a24.762286 24.762286 0 0 1-3.672 6.610285l38.164571 203.499429c2.044571 10.924571-5.804571 19.605714-17.501714 19.605714h-9.579429l10.592 40.134857h93.547429v40.138286H408.172571v-2.889143l-13.677714-51.864a25.638857 25.638857 0 0 1-6.526857 2.997714l-87.128 25.717715c-11.044571 3.260571-20.211429-2.934857-20.211429-13.917715v-80.643428c0-10.834286 9.176-17.532571 20.490286-14.638857l34.307429 8.766857-115.481143-149.862857c-27.667429-35.914286-11.830857-64.832 35.186286-64.832h2.826285l9.401143-19.205715-50.938286-49.865142a150.572571 150.572571 0 0 1-64.386285 14.386285C68.073143 339.293714 0 270.777143 0 186.253714c0-84.516571 68.073143-153.04 152.034286-153.04s152.034286 68.523429 152.034285 153.04c0.038857 29.971429-8.704 59.285714-25.139428 84.275429l26.668571 26.104 31.484572-64.352c4.832-9.844571 18.411429-18.033143 30.227428-18.033143h20.776v-21.136c0-10.844571 9.505143-19.889143 21.241143-19.889143h217.085714c11.696 0 21.233143 8.900571 21.233143 19.889143v40.312h359.269715c11.722286 0.013714 18.765714 8.602286 15.723428 19.195429zM153.308571 115.129143c-38.784 0-70.220571 31.658286-70.220571 70.684571 0 39.029714 31.436571 70.683429 70.220571 70.683429s70.219429-31.653714 70.219429-70.683429c0-39.026286-31.436571-70.684571-70.219429-70.684571z m0 0"  horiz-adv-x="1024" />

    
    <glyph glyph-name="paichusuo" unicode="&#58957;" d="M508.6 677.8c12.6-0.1 16.9-10 23.4-16.4l46.7-46.7 190.1-189.5c19-19 66-51.7 36.6-88.4-31.7-39.7-72.3 13.9-90.9 30.9l-71.4 72.6c-23.6 23.2-47.2 46.3-70.7 69.5-12.9 14.1-27.6 26.4-40.4 40.4-6.1 6.7-12.3 15.5-20.2 20.2-6.6-3.9-10.3-10.8-15.8-15.8-14.6-13.3-29.9-26.8-43.6-41.1-4.3-4.5-7.2-10.7-12-14.5-27.6-22-49.7-50.9-75.2-75.2-19.7-18.7-43.2-37.4-59.4-59.4-3.8-5.1-10.8-8.1-15.2-12.6-11.6-12-22.8-33.2-48-27.2-10 2.4-18.5 4.3-24.6 12-31 38.9 26.7 78.5 46.7 98.5 81.4 81 162.7 161.8 243.9 242.7zM747.4 150.4V304.5L511.2 540.1l-235-235v-149.1c0-20-3.8-51.1 3.2-65.7l463.6-0.6c8.2 11.4 4.4 42 4.4 60.7zM610.3 183.9c-11.8-18.1-39.1-24.2-63.8-32.2-9.1-3-18.2-6.8-25.3-12-2.7-2.3-5.5-4.6-8.2-6.9-4-1-19.7 13.1-26.5 15.8-11.4 3.2-22.7 6.3-34.1 9.5-25.2 10.1-42.5 25-50.5 50.5-10.1 32.2 6.6 64.9 15.2 88.4 2 5.4 6.4 14.1 4.4 22.7-3 13.4-15.3 17.1-20.2 27.8-1.7 5.9 42.5 40.8 49.9 46.1 7.2-1.8 20-20.7 30.3-25.9 41.9-21.3 68.3 6.4 89.1 25.9 6.2-0.6 52.2-40.1 52.4-46.1-6.6-6.8-17-15.1-20.2-24.6-5.1-15.3 9.6-42.7 13.9-53.7 11.1-28.5 7.1-64.7-6.4-85.3zM509.8 305.2c2.8-0.1 3.4-0.4 5-1.3 1-5.4 10.6-29.2 14.4-30.7 10.8-1 21.7-2.1 32.5-3.1 0.4-0.8 0.8-1.7 1.3-2.5-5.9-10.4-18.9-15.3-26.3-24.4 2.8-8.1 9.8-27 6.3-35-12.9 1-20.3 13.5-31.9 16.9-6.8-4.3-23.6-19.1-31.9-15.6 2.5 11.3 5 22.5 7.5 33.8-7.4 9-20.5 14-26.3 24.4 1.1 1.3 0.8 1.5 2.5 2.5 11.3 1 22.5 2.1 33.8 3.1 4.4 10.6 8.7 21.3 13.1 31.9z"  horiz-adv-x="1024" />

    
    <glyph glyph-name="shengji" unicode="&#59045;" d="M533.589333 852.565333a28.16 28.16 0 0 1-43.264 0L134.314667 446.976c-11.946667-13.568-6.741333-24.661333 11.605333-24.661333h133.12c18.261333 0 33.28-14.506667 33.28-32.426667v-259.925333c0-17.92 14.933333-32.512 33.28-32.512h332.714667c18.261333 0 33.28 14.592 33.28 32.426666V389.973333c0 17.92 14.933333 32.426667 33.28 32.426667h133.034666c18.346667 0 23.552 11.093333 11.605334 24.661333L533.589333 852.48zM445.354667-32.512a65.706667 65.706667 0 0 0-66.56-64.938667 65.706667 65.706667 0 0 0-66.56 64.938667 65.706667 65.706667 0 0 0 66.56 65.024c36.778667 0 66.56-29.098667 66.56-65.024z m266.24 0a65.706667 65.706667 0 0 0-66.56-64.938667 65.706667 65.706667 0 0 0-66.56 64.938667 65.706667 65.706667 0 0 0 66.56 65.024c36.693333 0 66.56-29.098667 66.56-65.024z m-332.8 65.024h266.24v-129.962667h-266.24V32.426667z"  horiz-adv-x="1024" />

    
    <glyph glyph-name="chuli" unicode="&#58911;" d="M370.773333 88.32l1.28 12.373333 14.506667 134.4 59.306667-60.16 169.813333 171.52 8.96 9.386667 154.88 152.32c9.813333 6.4 20.906667 11.093333 32 14.08V732.16c0 52.906667-40.96 96-91.306667 96H176.64C126.293333 827.733333 85.333333 784.64 85.333333 732.16V121.6c0-52.906667 40.96-96 91.306667-96h187.733333l6.4 62.72zM204.8 595.626667H675.84v-49.92H204.8v49.92z m0-130.133334h333.653333v-49.92H204.8v49.92z m0-147.626666h252.16v-49.92H204.8V317.866667z m240.64-251.733334l110.933333-111.786666-124.586666-14.08 13.653333 125.866666z m443.306667 223.146667l-110.506667 111.36-304.64-307.2 110.506667-111.36 304.64 307.2z m35.84 36.266667c18.346667 18.773333 18.346667 49.066667 0 67.84L881.493333 437.333333c-18.346667 18.773333-48.64 18.773333-66.986666 0l-7.68-8.106666L917.333333 317.866667l7.253334 7.68z"  horiz-adv-x="1024" />

    
    <glyph glyph-name="qichezhan" unicode="&#59099;" d="M955.733333 778.24c0 27.306667-22.186667 49.493333-49.493333 49.493333H117.76c-27.306667 0-49.493333-22.186667-49.493333-49.493333v-406.186667c0-27.306667 22.186667-49.493333 49.493333-49.493333h296.96c27.306667 0 49.493333-22.186667 49.493333-49.493333v-283.306667c0-27.306667 21.333333-49.493333 47.36-49.493333S558.933333-37.546667 558.933333-10.24v283.306667c0 27.306667 22.186667 49.493333 49.493334 49.493333h296.96c27.306667 0 49.493333 22.186667 49.493333 49.493333V778.24zM249.6 423.68c0-27.306667-15.786667-49.493333-34.56-49.493333s-34.56 22.186667-34.56 49.493333v89.173333c0 27.306667 15.786667 49.493333 34.56 49.493334s34.56-22.186667 34.56-49.493334v-89.173333z m197.973333 0c0-27.306667-15.786667-49.493333-34.56-49.493333s-34.56 22.186667-34.56 49.493333v89.173333c0 27.306667 15.786667 49.493333 34.56 49.493334s34.56-22.186667 34.56-49.493334v-89.173333z m197.973334 0c0-27.306667-15.786667-49.493333-34.56-49.493333s-34.56 22.186667-34.56 49.493333v89.173333c0 27.306667 15.786667 49.493333 34.56 49.493334s34.56-22.186667 34.56-49.493334v-89.173333z m198.4 0c0-27.306667-15.786667-49.493333-34.56-49.493333-19.2 0-34.56 22.186667-34.56 49.493333v89.173333c0 27.306667 15.786667 49.493333 34.56 49.493334 19.2 0 34.56-22.186667 34.56-49.493334v-89.173333zM896.426667 663.466667c0-27.306667-22.186667-49.493333-49.493334-49.493334h-669.866666c-27.306667 0-49.493333 22.186667-49.493334 49.493334V728.746667c0 27.306667 22.186667 49.493333 49.493334 49.493333h669.44c27.306667 0 49.493333-22.186667 49.493333-49.493333V663.466667zM365.226667 695.893333c0-19.2-22.186667-34.56-49.493334-34.56H226.56c-27.306667 0-49.493333 15.786667-49.493333 34.56s22.186667 34.56 49.493333 34.56H315.733333c27.306667 0.426667 49.493333-15.36 49.493334-34.56z"  horiz-adv-x="1024" />

    
    <glyph glyph-name="shouji" unicode="&#58935;" d="M738.03125 896H285.91875A63.4 63.4 0 0 1 222.58125 832.6v-897.275a63.3875 63.3875 0 0 1 63.3375-63.325h452.1125a63.3875 63.3875 0 0 1 63.3875 63.325V832.6A63.4 63.4 0 0 1 738.03125 895.9625M443.13125 868.85h137.7125a12.8 12.8 0 0 0 12.7875-12.8 12.8 12.8 0 0 0-12.7875-12.8625H443.13125a12.825 12.825 0 0 0-12.825 12.8625 12.8125 12.8125 0 0 0 12.825 12.8m68.875-955a34.2 34.2 0 1 0 34.2 34.1875 34.2625 34.2625 0 0 0-34.2-34.1875m245.225 97.9875H266.81875V816.675h490.4125z m0 0"  horiz-adv-x="1024" />

    
    <glyph glyph-name="yiyuan" unicode="&#59047;" d="M604.8 860.8h-512C60.8 860.8 32 835.2 32 800v-832c0-35.2 25.6-60.8 60.8-60.8h512c32 0 60.8 28.8 60.8 60.8V800c0 35.2-28.8 60.8-60.8 60.8z m-291.2-816c0-9.6-9.6-19.2-19.2-19.2H172.8c-9.6 0-19.2 9.6-19.2 19.2V169.6c0 9.6 9.6 19.2 19.2 19.2h121.6c9.6 0 19.2-9.6 19.2-19.2v-124.8z m0 224c0-9.6-9.6-19.2-19.2-19.2H172.8c-9.6 0-19.2 9.6-19.2 19.2V393.6c0 9.6 9.6 19.2 19.2 19.2h121.6c9.6 0 19.2-9.6 19.2-19.2v-124.8z m32 249.6c-16 0-32 12.8-32 28.8V608h-60.8c-16 0-28.8 12.8-28.8 32 0 16 12.8 32 28.8 32h60.8v57.6c0 16 12.8 28.8 32 28.8 16 0 32-12.8 32-28.8v-60.8h60.8c16 0 28.8-12.8 28.8-32 0-16-12.8-32-28.8-32h-60.8V544c0-12.8-16-25.6-32-25.6z m188.8-473.6c0-9.6-9.6-19.2-19.2-19.2H393.6c-9.6 0-19.2 9.6-19.2 19.2V169.6c0 9.6 9.6 19.2 19.2 19.2h121.6c9.6 0 19.2-9.6 19.2-19.2v-124.8z m0 224c0-9.6-9.6-19.2-19.2-19.2H393.6c-9.6 0-19.2 9.6-19.2 19.2V393.6c0 9.6 9.6 19.2 19.2 19.2h121.6c9.6 0 19.2-9.6 19.2-19.2v-124.8zM928 384H694.4v-476.8H928c35.2 0 64 28.8 64 60.8V323.2c-3.2 32-32 60.8-64 60.8z"  horiz-adv-x="1024" />

    
    <glyph glyph-name="gaojing" unicode="&#60162;" d="M800 0H224c-17.7 0-32-14.3-32-32s14.3-32 32-32h576c17.7 0 32 14.3 32 32s-14.3 32-32 32zM512 640c-141.4 0-256-114.6-256-256v-320h512V384c0 141.4-114.6 256-256 256zM320 128V384c0 51.3 20 99.5 56.2 135.8S460.7 576 512 576s99.5-20 135.8-56.2S704 435.3 704 384v-256H320zM512 832c-17.7 0-32-14.3-32-32v-64c0-17.7 14.3-32 32-32s32 14.3 32 32V800c0 17.7-14.3 32-32 32z m267.4-97.3c-9.1 0-18.2-3.9-24.5-11.4l-41.1-49c-11.4-13.5-9.6-33.7 3.9-45.1 6-5 13.3-7.5 20.6-7.5 9.1 0 18.2 3.9 24.5 11.4l41.1 49c11.4 13.5 9.6 33.7-3.9 45.1-6 5-13.3 7.5-20.6 7.5z m142.3-246.5c-1.8 0-3.7-0.2-5.6-0.5l-63-11.1c-17.4-3.1-29-19.7-26-37.1 2.7-15.5 16.2-26.4 31.5-26.4 1.8 0 3.7 0.2 5.6 0.5l63 11.1c17.4 3.1 29 19.7 26 37.1-2.7 15.5-16.2 26.4-31.5 26.4zM244.6 734.7c-7.3 0-14.6-2.5-20.6-7.5-13.5-11.4-15.3-31.5-3.9-45.1l41.1-49c6.3-7.5 15.4-11.4 24.5-11.4 7.3 0 14.6 2.5 20.6 7.5 13.5 11.4 15.3 31.5 3.9 45.1l-41.1 49c-6.3 7.5-15.4 11.4-24.5 11.4zM102.3 488.2c-15.2 0-28.7-10.9-31.5-26.4-3.1-17.4 8.6-34 26-37.1l63-11.1c1.9-0.3 3.7-0.5 5.6-0.5 15.2 0 28.7 10.9 31.5 26.4 3.1 17.4-8.6 34-26 37.1l-63 11.1c-1.9 0.4-3.8 0.5-5.6 0.5z"  horiz-adv-x="1024" />

    
    <glyph glyph-name="shanchu" unicode="&#58936;" d="M523.907-128C235.758-128 0 100.614 0 384S235.758 896 523.907 896s523.907-228.614 523.907-512-235.758-512-523.907-512z m0 952.558C273.86 824.558 71.442 626.902 71.442 384S273.86-56.558 523.907-56.558 976.372 141.098 976.372 384 773.953 824.558 523.907 824.558zM352.447 407.814H719.18c19.052 0 35.721-16.67 35.721-35.721s-16.67-35.72-35.72-35.72H352.446c-19.052 0-35.721 16.669-35.721 35.72s16.67 35.721 35.72 35.721z"  horiz-adv-x="1047" />

    
    <glyph glyph-name="shoucang" unicode="&#58958;" d="M985.407-126.833c-14.91 0-31.765 4.278-47.324 12.058L715.858-3.663l-223.652-110.853c-14.132-7.52-30.339-11.54-46.934-11.54-21.523-0.129-42.397 6.743-59.64 19.578-31.247 23.468-47.324 64.179-39.934 101.13l45.768 237.265-175.42 163.492c-27.098 27.487-37.47 67.29-27.228 104.371l0.39 1.167c12.705 38.248 44.34 64.956 82.718 70.142l243.618 44.342L624.84 837.526C642.345 872.662 678.13 895.222 715.858 895.222c39.414 0 76.106-23.467 91.405-58.344l108.909-221.447 243.618-42.656c38.637-5.575 70.402-33.321 81.163-70.92 12.058-36.951 2.204-77.403-25.412-104.76l-0.648-0.648-174.773-164.66 44.212-237.654c7.13-37.988-8.039-76.365-39.415-100.351-16.855-13.484-37.858-20.745-59.51-20.615z m-269.55 187.997l248.027-124.078c7.26-3.63 15.688-5.964 21.393-5.964 8.816 0 17.114 2.723 23.078 7.779l1.167 0.908c14.132 10.631 21.004 27.356 17.892 43.822l-49.916 268.9 197.461 185.923c12.058 12.317 16.207 29.82 10.891 46.027l-0.518 1.686c-4.409 15.688-17.633 27.227-33.71 29.43l-1.167 0.13-273.18 47.713-122.91 249.712c-5.964 14.002-22.17 24.115-38.507 24.115-16.077 0-31.376-10.113-39.285-25.542L554.44 563.57l-274.605-49.917c-16.726-2.074-29.691-13.225-35.655-30.468-4.279-15.818 0.778-34.747 12.447-46.676l197.59-184.237-51.86-269.03c-3.112-15.558 4.278-33.45 17.892-43.693 6.871-5.186 15.688-7.909 25.023-7.909 7.13 0 14.002 1.686 19.966 4.798l0.908 0.518 249.712 124.208z m0 0"  horiz-adv-x="1427" />

    
    <glyph glyph-name="qiche" unicode="&#59036;" d="M1024 456.533333v25.6c0 12.8-12.8 25.6-25.6 25.6h-93.866667c-4.266667 0-8.533333 0-12.8-4.266666l-42.666666 132.266666c-12.8 72.533333-64 110.933333-128 110.933334H307.2c-72.533333 0-119.466667-46.933333-128-110.933334l-42.666667-132.266666c-4.266667 4.266667-8.533333 4.266667-17.066666 4.266666H25.6c-17.066667 0-25.6-12.8-25.6-25.6v-21.333333c0-12.8 12.8-25.6 25.6-25.6l34.133333-8.533333c-8.533333-25.6-17.066667-51.2-17.066666-81.066667l-12.8-153.6v-204.8c0-25.6 21.333333-46.933333 46.933333-46.933333h72.533333c25.6 0 46.933333 21.333333 46.933334 46.933333v59.733333h627.2v-59.733333c0-25.6 21.333333-46.933333 46.933333-46.933333h72.533333c25.6 0 46.933333 21.333333 46.933334 46.933333V170.666667v8.533333 12.8l-12.8 153.6c0 29.866667-8.533333 55.466667-17.066667 76.8l34.133333 4.266667c17.066667 4.266667 29.866667 17.066667 29.866667 29.866666zM209.066667 537.6l29.866666 85.333333c4.266667 17.066667 12.8 21.333333 25.6 34.133334h499.2c8.533333-17.066667 12.8-17.066667 17.066667-34.133334l34.133333-85.333333 12.8-46.933333c-4.266667-34.133333-42.666667-59.733333-76.8-59.733334h-469.333333c-34.133333 0-76.8 25.6-76.8 59.733334l4.266667 46.933333z m93.866666-332.8c0-38.4-34.133333-72.533333-72.533333-72.533333-38.4 0-72.533333 34.133333-72.533333 72.533333 0 38.4 34.133333 72.533333 72.533333 72.533333 42.666667 0 72.533333-29.866667 72.533333-72.533333z m558.933334 0c0-38.4-34.133333-72.533333-72.533334-72.533333-38.4 0-72.533333 34.133333-72.533333 72.533333 0 38.4 34.133333 72.533333 72.533333 72.533333 42.666667 0 72.533333-29.866667 72.533334-72.533333z"  horiz-adv-x="1024" />

    
    <glyph glyph-name="kechengfabuzhe" unicode="&#58975;" d="M479.5 399c121.6 0 220.6 96.9 220.6 217.1 0 120.2-99 217.1-220.6 217.1s-220.6-96.9-220.6-217.1c0-119.5 99-217.1 220.6-217.1zM604.7 140.2c0 75.7 40.3 142.1 100.4 178.9-19.8 16.3-42.4 31.1-65.8 41.7-12.7 5.7-60.8 28.3-111.7 29.7H430c-49.5-2.1-96.9-24-108.9-29.7-137.2-62.9-222.8-239-166.9-331.7 33.2-54.5 108-74.5 169-82.7 169.5-22.9 312.6 0 312.6 0 21.2 4.9 43.8 9.9 65.8 16.3-58 37.5-96.9 102.6-96.9 177.5zM869.2 249.8l-221.3-77.1c-9.9-3.5-5.7-14.1-2.1-15.6l55.9-65.8c3.5-2.1 8.5-2.1 14.1 2.1l123 104 3.5-2.1-111.7-111c-2.1-2.1-2.1-3.5-2.1-5.7v-48.1c0-3.5 2.1-8.5 5.7-9.9 3.5-1.4 8.5 0 9.9 2.1l26.2 26.2 61.5-40.3c5.7-3.5 15.6-3.5 17.7 5.7l35.4 222.8c2 9.9 4.1 19.8-15.7 12.7z"  horiz-adv-x="1024" />

    
    <glyph glyph-name="honglvdeng" unicode="&#58983;" d="M724.28 99.664c0-38.747-31.739-70.111-69.781-70.111H584.23v-141.083H444.125V29.553h-70.21a69.782 69.782 0 0 0-49.517 20.537 69.844 69.844 0 0 0-20.379 49.574V799.963c0 38.631 31.767 70.053 69.896 70.053h280.57a69.873 69.873 0 0 0 49.431-20.565 69.847 69.847 0 0 0 20.351-49.488v-700.299h0.013zM515.859 518.057c-38.66 0-70.011-31.336-70.011-70.024 0-38.66 31.351-69.997 70.011-69.997 38.675 0 70.023 31.337 70.023 69.997 0.001 38.688-31.348 70.024-70.023 70.024m0 280.154c-38.66-0.027-69.968-31.393-69.939-70.082 0.029-38.659 31.379-69.994 70.038-69.967 38.661 0 70.012 31.337 70.025 70.025a69.993 69.993 0 0 1-20.536 49.545 70.061 70.061 0 0 1-49.588 20.479m280.973-95.242c0 14.073 11.489 25.362 25.462 25.275l158.861-2.211c23.466-0.201 33.965-29.756 15.812-44.892L837.156 493.988c-16.457-13.759-41.114-1.81-41.07 19.559l0.746 189.422z m-602.2-559.276L34.893 330.875c-18.123 15.051-7.783 44.664 15.769 44.893l158.962 2.269c13.945 0 25.29-11.258 25.348-25.217l0.79-189.45c0.071-21.515-24.687-33.319-41.13-19.677m0 350.151L34.88 680.997c-18.125 15.164-7.799 44.749 15.753 44.977l158.963 2.27c6.722 0 13.169-2.642 17.922-7.381a25.33 25.33 0 0 0 7.439-17.894l0.776-189.479c0.1-21.34-24.658-33.261-41.101-19.646M996.91 330.875L837.13 143.693c-16.474-13.643-41.132-1.838-41.088 19.676l0.79 189.507c0 13.931 11.489 25.276 25.462 25.19l158.903-2.27c23.511-0.229 33.907-29.87 15.713-44.921m-481.051-92.944c-37.985-0.948-68.302-32.024-68.302-70.024 0-37.998 30.317-69.076 68.302-70.023 38.688 0 70.066 31.335 70.124 69.994a70.009 70.009 0 0 1-20.536 49.547c-13.154 13.153-30.99 20.506-49.588 20.506"  horiz-adv-x="1024" />

    
    <glyph glyph-name="shebei" unicode="&#59090;" d="M855.04 747.52H254.976c-17.408 0-31.744-14.336-31.744-31.744v-94.72h-31.744V747.52c0 17.408-14.336 31.744-31.744 31.744S128 764.928 128 747.52v-157.696c0-17.408 14.336-31.744 31.744-31.744H855.04c17.408 0 31.744 14.336 31.744 31.744V715.776c-0.512 17.92-14.336 31.744-31.744 31.744z m-31.744-125.952H286.72V684.544h536.576v-62.976zM855.04 463.36H254.976c-17.408 0-31.744-14.336-31.744-31.744v-94.72h-31.744V463.36c0 17.408-14.336 31.744-31.744 31.744S128 480.768 128 463.36v-157.696c0-17.408 14.336-31.744 31.744-31.744H855.04c17.408 0 31.744 14.336 31.744 31.744V432.128c-0.512 17.408-14.336 31.232-31.744 31.232z m-31.744-125.952H286.72V400.384h536.576v-62.976zM855.04 179.2H254.976c-17.408 0-31.744-14.336-31.744-31.744v-94.72h-31.744V179.2c0 17.408-14.336 31.744-31.744 31.744S128 196.608 128 179.2v-157.696c0-17.408 14.336-31.744 31.744-31.744H855.04c17.408 0 31.744 14.336 31.744 31.744v126.464c-0.512 17.408-14.336 31.232-31.744 31.232z m-31.744-125.952H286.72v62.976h536.576v-62.976z"  horiz-adv-x="1024" />

    
    <glyph glyph-name="xuexiao" unicode="&#59107;" d="M707.512 317.47V547.885L528.925 678.852V746.21h158.872V831.852H506.79v-152.98L325.9 540.844V317.47H103.2v-379.234h328.396V83.86c0 43.2 35.861 78.208 80.11 78.208 45.184 0 81.818-35.76 81.818-79.874v-143.958h322.07V317.47H707.513zM513.81 374.492c-44.23 0-80.112 35.008-80.112 78.209 0 43.198 35.881 78.225 80.112 78.225 44.252 0 80.13-35.027 80.13-78.225 0-43.2-35.877-78.209-80.13-78.209z"  horiz-adv-x="1024" />

    
    <glyph glyph-name="shijian" unicode="&#58984;" d="M519.9872 406.8352l-37.376-59.5456 213.0432-133.6832 37.376 58.9312-213.0432 134.2976z m32.6656 248.064H482.6112v-307.6096h70.0416V654.8992zM517.632 879.616c-273.7664 0-496.128-222.3616-496.128-496.128S243.8656-112.64 517.632-112.64s496.128 222.3616 496.128 496.128-222.3616 496.128-496.128 496.128z m0-70.0416c235.2128 0 426.0864-190.8736 426.0864-426.0864s-190.8736-426.0864-426.0864-426.0864-426.0864 190.8736-426.0864 426.0864 190.8736 426.0864 426.0864 426.0864z"  horiz-adv-x="1024" />

    
    <glyph glyph-name="location" unicode="&#58880;" d="M512.103132 575.879021a106.221743 106.221743 0 1 0-75.507022-31.354611A106.221743 106.221743 0 0 0 512.103132 575.879021m0 63.989002a170.850635 170.850635 0 1 1 120.939214-49.911422A169.570855 169.570855 0 0 1 512.103132 639.868023zM805.172761 771.685367a407.609942 407.609942 0 0 1-586.139257 0 431.285873 431.285873 0 0 1 0-599.576948L512.103132-128l293.069629 300.108419a431.285873 431.285873 0 0 1 0 599.576948z m-44.152411-557.344207l-248.917218-255.956007-248.917217 255.956007a365.377201 365.377201 0 0 0 0 508.712565 346.82039 346.82039 0 0 0 497.834435 0 365.377201 365.377201 0 0 0 0-508.712565z"  horiz-adv-x="1024" />

    
    <glyph glyph-name="qiangjie1" unicode="&#58881;" d="M512 832C264.58 832 64 631.42 64 384c0-104.48 35.77-200.6 95.72-276.8l2.6 14.74h31.93l23.22 131.7-45.46-23.94 11.73 66.51 45.69 25.27 38 215.5h-35.92l10.32 58.53h35.92l19 107.75h131.7l-19-107.75h41.24l-10.32-58.53h-41.24l-25.8-146.33 54.14 27.94-11.96-67.84-54.15-27.94-45.74-259.4H199.07C279.82-15.42 390.24-64 512-64c247.42 0 448 200.58 448 448S759.42 832 512 832z m80.73-404.1l-53.95-305.96h240.78L769 62.08H395.2l75.06 425.69h353.85L773.28 229.7H599.02l10.32 58.53h43.9l28.62 139.68h-89.13zM727 510.38l-61.59 73.16-84.73-73.16H433.01l207.42 195.55h90.46L872 510.38H727z"  horiz-adv-x="1024" />

    
    <glyph glyph-name="leixing" unicode="&#59188;" d="M58.304 141.056c0-116.416 94.4-210.816 210.816-210.816s210.816 94.4 210.816 210.816V351.872h-210.88c-116.416 0-210.752-94.4-210.752-210.816z m345.088 0c0-74.112-60.288-134.336-134.336-134.336S134.72 67.008 134.72 141.056s60.288 134.336 134.336 134.336h134.336v-134.336z m562.304 485.888c0 116.416-94.4 210.816-210.816 210.816s-210.816-94.4-210.816-210.816v-210.816H754.88c116.48 0 210.816 94.4 210.816 210.816z m-345.152 0c0 74.112 60.288 134.336 134.336 134.336s134.336-60.288 134.336-134.336c0-74.112-60.288-134.336-134.336-134.336H620.544V626.944zM269.056 416.128h210.816V626.944c0 116.416-94.4 210.816-210.816 210.816S58.24 743.36 58.24 626.944c0.064-116.416 94.4-210.816 210.816-210.816z m0 345.152c74.112 0 134.336-60.288 134.336-134.336v-134.336H269.056c-74.112 0-134.336 60.288-134.336 134.336 0 74.048 60.288 134.336 134.336 134.336z m485.888-409.408H544.128v-210.816c0-116.416 94.4-210.816 210.816-210.816s210.816 94.4 210.816 210.816-94.4 210.816-210.816 210.816z m0-345.152c-74.112 0-134.336 60.288-134.336 134.336V275.392h134.336c74.112 0 134.336-60.288 134.336-134.336S828.992 6.72 754.944 6.72z"  horiz-adv-x="1024" />

    
    <glyph glyph-name="dangzhengjiguanbangonglou" unicode="&#58969;" d="M512 768L160 585.152V512h704V585.152L512 768z m166.72-329.152v-256h111.168v256h-111.168zM160 0h704v109.696h-704V0z m296.448 438.848v-256h111.104v256H456.448z m-222.336 0v-256h111.168v256H234.112z"  horiz-adv-x="1024" />

    
    <glyph glyph-name="zhiwu" unicode="&#58960;" d="M153.60128 896h844.928a154.112 154.112 0 0 0 153.28-147.52l0.192-7.552v-697.856a154.432 154.432 0 0 0-146.176-154.88l-7.424-0.192H153.60128a154.24 154.24 0 0 0-153.408 147.52L0.00128 43.072V740.928A154.432 154.432 0 0 0 146.17728 895.808L153.53728 896h844.992H153.60128z m828.544-96H169.85728c-39.04 0-70.976-31.04-73.664-70.272l-0.192-5.376v-680.704c0-39.936 30.336-72.64 68.608-75.52l5.248-0.128h812.16c39.04 0 70.976 31.04 73.728 70.272l0.128 5.376 0.128 680.704A74.88 74.88 0 0 1 982.14528 800zM534.65728 355.968c63.36-43.648 107.328-120.32 113.344-209.216-22.144-3.2-61.568-6.72-117.888-6.72H297.85728c-56.32 0-95.744 3.456-117.824 6.72 6.08 88.96 49.984 165.632 113.344 209.28 33.408-28.544 74.88-46.272 120.64-46.272 45.76 0 87.296 17.728 120.576 46.272z m200.384-69.632h233.984c21.568 0 39.04-16.704 38.976-37.12 0-19.136-15.36-34.944-34.752-36.992l-4.224-0.256h-233.984c-21.376 0-38.912 16.768-38.912 37.248 0 19.072 15.296 34.88 34.688 36.928l4.224 0.192h233.984-233.984zM410.75328 643.968c87.488 0 158.72-67.968 158.72-151.424 0-83.392-71.232-151.36-158.72-151.36S252.16128 409.152 252.03328 492.544c0 83.456 71.232 151.488 158.72 151.488zM735.04128 435.2h233.984c21.568 0 39.04-16.768 38.976-37.12 0-19.136-15.36-34.944-34.752-36.992l-4.224-0.256h-233.984c-21.376 0-38.912 16.768-38.912 37.184 0 19.072 15.296 34.944 34.688 36.928l4.224 0.256h233.984-233.984z m0 148.928h233.984c21.568 0 39.04-16.768 38.976-37.184 0-19.072-15.36-34.944-34.752-36.928l-4.224-0.256h-233.984c-21.376 0-38.912 16.768-38.912 37.12 0 19.136 15.296 34.944 34.688 37.056l4.224 0.192h233.984-233.984z"  horiz-adv-x="1152" />

    


  </font>
</defs>
</svg>
